<svg xmlns="http://www.w3.org/2000/svg" width="64" height="64" viewBox="0 0 64 64"><defs><linearGradient id="tile" x2="0" y2="1"><stop stop-color="#F8F9FA"/><stop offset="1" stop-color="#E2E4E7"/></linearGradient></defs><rect x="3" y="4" width="58" height="58" rx="12" fill="#265098" opacity=".3"/><rect x="3" y="2" width="58" height="58" rx="12" fill="url(#tile)" stroke="#A6ABB2" stroke-width="1"/><path d="M14 3.5h36" stroke="#265098" stroke-opacity=".55" stroke-width="1" stroke-linecap="round"/><svg xmlns="http://www.w3.org/2000/svg" width="44" height="44" version="1" viewBox="0 0 64 64" x="10" y="9">
 <rect style="opacity:0.2" width="38" height="38" x="4" y="-60" rx="3" ry="3" transform="matrix(0,1,-1,0,0,0)" />
 <rect style="fill:#d3d3d3" width="38" height="38" x="3" y="-60" rx="3" ry="3" transform="matrix(0,1,-1,0,0,0)" />
 <g style="opacity:0.2" transform="matrix(2,0,0,2,9,-7)">
  <path d="m 10,11 0,-1.5 12,0 0,1.5 z" />
  <path d="m 10,14 0,-1.5 12,0 0,1.5 z" />
  <path d="m 10,17 0,-1.5 12,0 0,1.5 z" />
  <path d="m 10,20 0,-1.5 8,0 0,1.5 z" />
 </g>
 <rect style="opacity:0.2" width="38" height="38" x="22" y="-42" rx="3" ry="3" transform="matrix(0,1,-1,0,0,0)" />
 <rect style="fill:#e4e4e4" width="38" height="38" x="21" y="-42" rx="3" ry="3" transform="matrix(0,1,-1,0,0,0)" />
 <path style="opacity:0.1;fill:#ffffff" d="M 25 3 C 23.338 3 22 4.338 22 6 L 22 7 C 22 5.338 23.338 4 25 4 L 57 4 C 58.662 4 60 5.338 60 7 L 60 6 C 60 4.338 58.662 3 57 3 L 25 3 z" />
 <path style="opacity:0.1;fill:#ffffff" d="M 7 21 C 5.338 21 4 22.338 4 24 L 4 25 C 4 23.338 5.338 22 7 22 L 39 22 C 40.662 22 42 23.338 42 25 L 42 24 C 42 22.338 40.662 21 39 21 L 7 21 z" />
 <g style="opacity:0.5" transform="matrix(2,0,0,2,-9,11)">
  <path d="m 10,11 0,-1.5 12,0 0,1.5 z" />
  <path d="m 10,14 0,-1.5 12,0 0,1.5 z" />
  <path d="m 10,17 0,-1.5 12,0 0,1.5 z" />
  <path d="m 10,20 0,-1.5 8,0 0,1.5 z" />
 </g>
</svg><path d="M25 56h14" stroke="#4384D6" stroke-linecap="round" stroke-width="2"/></svg>