<svg xmlns="http://www.w3.org/2000/svg" width="64" height="64" viewBox="0 0 64 64"><defs><linearGradient id="tile" x2="0" y2="1"><stop stop-color="#F8F9FA"/><stop offset="1" stop-color="#E2E4E7"/></linearGradient></defs><rect x="3" y="4" width="58" height="58" rx="12" fill="#265098" opacity=".3"/><rect x="3" y="2" width="58" height="58" rx="12" fill="url(#tile)" stroke="#A6ABB2" stroke-width="1"/><path d="M14 3.5h36" stroke="#265098" stroke-opacity=".55" stroke-width="1" stroke-linecap="round"/><svg xmlns="http://www.w3.org/2000/svg" width="44" height="44" version="1" viewBox="0 0 64 64" x="10" y="9">
 <rect style="opacity:0.2" width="56" height="56" x="4" y="5" rx="2.8" ry="2.8" />
 <rect style="fill:#8e8e8e" width="56" height="56" x="4" y="4" rx="2.8" ry="2.8" />
 <path style="fill:none;stroke:#3f3f3f;stroke-width:4" d="M 12,39 H 32 V 25 h 20" />
 <path style="opacity:0.2" d="m 32,22 c -2.209139,0 -4,1.790861 -4,4 0,2.209139 1.790861,4 4,4 2.209139,0 4,-1.790861 4,-4 0,-2.209139 -1.790861,-4 -4,-4 z m 20,0 c -2.209139,0 -4,1.790861 -4,4 0,2.209139 1.790861,4 4,4 2.209139,0 4,-1.790861 4,-4 0,-2.209139 -1.790861,-4 -4,-4 z M 12,36 c -2.209139,0 -4,1.790861 -4,4 0,2.209139 1.790861,4 4,4 2.209139,0 4,-1.790861 4,-4 0,-2.209139 -1.790861,-4 -4,-4 z m 20,0 c -2.209139,0 -4,1.790861 -4,4 0,2.209139 1.790861,4 4,4 2.209139,0 4,-1.790861 4,-4 0,-2.209139 -1.790861,-4 -4,-4 z" />
 <path style="fill:#ffffff" d="m 32,21 c -2.209139,0 -4,1.790861 -4,4 0,2.209139 1.790861,4 4,4 2.209139,0 4,-1.790861 4,-4 0,-2.209139 -1.790861,-4 -4,-4 z m 20,0 c -2.209139,0 -4,1.790861 -4,4 0,2.209139 1.790861,4 4,4 2.209139,0 4,-1.790861 4,-4 0,-2.209139 -1.790861,-4 -4,-4 z M 12,35 c -2.209139,0 -4,1.790861 -4,4 0,2.209139 1.790861,4 4,4 2.209139,0 4,-1.790861 4,-4 0,-2.209139 -1.790861,-4 -4,-4 z m 20,0 c -2.209139,0 -4,1.790861 -4,4 0,2.209139 1.790861,4 4,4 2.209139,0 4,-1.790861 4,-4 0,-2.209139 -1.790861,-4 -4,-4 z" />
 <path style="opacity:0.1;fill:#ffffff" d="M 6.8007812 4 C 5.2495812 4 4 5.2495812 4 6.8007812 L 4 7.8007812 C 4 6.2495813 5.2495812 5 6.8007812 5 L 57.199219 5 C 58.750419 5 60 6.2495812 60 7.8007812 L 60 6.8007812 C 60 5.2495813 58.750419 4 57.199219 4 L 6.8007812 4 z" />
</svg><path d="M25 56h14" stroke="#4384D6" stroke-linecap="round" stroke-width="2"/></svg>