<svg xmlns="http://www.w3.org/2000/svg" width="64" height="64" viewBox="0 0 64 64"><defs><linearGradient id="tile" x2="0" y2="1"><stop stop-color="#F8F9FA"/><stop offset="1" stop-color="#E2E4E7"/></linearGradient></defs><rect x="3" y="4" width="58" height="58" rx="12" fill="#265098" opacity=".3"/><rect x="3" y="2" width="58" height="58" rx="12" fill="url(#tile)" stroke="#A6ABB2" stroke-width="1"/><path d="M14 3.5h36" stroke="#265098" stroke-opacity=".55" stroke-width="1" stroke-linecap="round"/><svg xmlns="http://www.w3.org/2000/svg" width="44" height="44" version="1" viewBox="0 0 64 64" x="10" y="9">
 <rect style="fill:#41ab93" width="48.45" height="44.175" x="7.28" y="11.82" />
 <rect style="fill:#e4e4e4" width="3" height="28" x="30" y="8.05" />
 <rect style="fill:#e4e4e4" width="3" height="28" x="19" y="8.05" />
 <rect style="fill:#e4e4e4" width="3" height="28" x="41" y="8.05" />
 <path style="fill:#4f4f4f" d="M 5.85,7 C 4.2711,7 3,8.3211005 3,9.9 V 56 H 8.9955227 V 13 H 53.999473 V 56 H 60 V 9.9 C 60,8.3211 58.7289,7 57.15,7 Z" />
 <circle style="opacity:0.1" cx="31.5" cy="38.5" r="5.5" />
 <circle style="fill:#3f3f3f" cx="31.5" cy="37.5" r="5.5" />
 <rect style="opacity:0.2" width="57" height="1" x="3" y="56" />
 <rect style="opacity:0.2" width="45" height="1" x="9" y="13" />
 <circle style="opacity:0.1" cx="20.5" cy="38.5" r="5.5" />
 <circle style="fill:#3f3f3f" cx="20.5" cy="37.5" r="5.5" />
 <circle style="opacity:0.1" cx="42.5" cy="38.5" r="5.5" />
 <circle style="fill:#3f3f3f" cx="42.5" cy="37.5" r="5.5" />
 <path style="fill:#ffffff;opacity:0.1" d="M 5.8554688 7 C 4.2767073 7 3.0058594 8.3214911 3.0058594 9.9003906 L 3.0058594 10.900391 C 3.0058594 9.3214911 4.2767073 8 5.8554688 8 L 57.150391 8 C 58.729152 8 60 9.3214906 60 10.900391 L 60 9.9003906 C 60 8.3214906 58.729152 7 57.150391 7 L 5.8554688 7 z" />
</svg><path d="M25 56h14" stroke="#4384D6" stroke-linecap="round" stroke-width="2"/></svg>