<svg xmlns="http://www.w3.org/2000/svg" width="64" height="64" viewBox="0 0 64 64"><defs><linearGradient id="tile" x2="0" y2="1"><stop stop-color="#fffaf0"/><stop offset="1" stop-color="#c6c9c3"/></linearGradient></defs><rect x="3" y="4" width="58" height="58" rx="4" fill="#222725" opacity=".3"/><rect x="3" y="2" width="58" height="58" rx="4" fill="url(#tile)" stroke="#716a5d" stroke-width="1"/><svg xmlns="http://www.w3.org/2000/svg" width="44" height="44" version="1" viewBox="0 0 64 64" x="10" y="9">
 <circle style="opacity:.2" cx="32" cy="33" r="28" />
 <circle style="fill:#37a0f2" cx="32" cy="32" r="28" />
 <path style="opacity:.2;fill:#ffffff" d="m32 4a28 28 0 0 0 -28 28 28 28 0 0 0 0.0214844 0.585938 28 28 0 0 1 27.9785156 -27.585938 28 28 0 0 1 27.978516 27.414062 28 28 0 0 0 0.021484 -0.414062 28 28 0 0 0 -28 -28z" />
</svg><path d="M25 56h14" stroke="#8db4a0" stroke-linecap="round" stroke-width="2"/></svg>