<svg xmlns="http://www.w3.org/2000/svg" width="64" height="64" viewBox="0 0 64 64"><defs><linearGradient id="tile" x2="0" y2="1"><stop stop-color="#fffaf0"/><stop offset="1" stop-color="#c6c9c3"/></linearGradient></defs><rect x="3" y="4" width="58" height="58" rx="4" fill="#222725" opacity=".3"/><rect x="3" y="2" width="58" height="58" rx="4" fill="url(#tile)" stroke="#716a5d" stroke-width="1"/><svg xmlns="http://www.w3.org/2000/svg" width="44" height="44" version="1" viewBox="0 0 64 64" x="10" y="9">
 <path style="opacity:0.2" d="m 4,56 0,2 c 0,1.662 1.338,3 3,3 l 50,0 c 1.662,0 3,-1.338 3,-3 l 0,-2 c 0,1.662 -1.338,3 -3,3 L 7,59 C 5.338,59 4,57.662 4,56 Z" />
 <rect style="fill:#c2352a" width="56" height="56" x="4" y="4" rx="3" ry="3" />
 <path style="opacity:0.1;fill:#ffffff" d="M 7 4 C 5.338 4 4 5.338 4 7 L 4 8 C 4 6.338 5.338 5 7 5 L 57 5 C 58.662 5 60 6.338 60 8 L 60 7 C 60 5.338 58.662 4 57 4 L 7 4 z" />
 <g style="opacity:0.2" transform="matrix(3,0,0,3,-1628,1074)">
  <path d="m 552,-353 0,8.6667 2,0 0,-8.6667 z m 0,10.667 0,2 2,0 0,-2 z" />
 </g>
 <g style="fill:#ffffff" transform="matrix(3,0,0,3,-1628,1073)">
  <path d="m 552,-353 0,8.6667 2,0 0,-8.6667 z m 0,10.667 0,2 2,0 0,-2 z" />
 </g>
</svg><path d="M25 56h14" stroke="#8db4a0" stroke-linecap="round" stroke-width="2"/></svg>