<svg xmlns="http://www.w3.org/2000/svg" width="64" height="64" viewBox="0 0 64 64"><defs><linearGradient id="tile" x2="0" y2="1"><stop stop-color="#48445b"/><stop offset="1" stop-color="#373950"/></linearGradient></defs><rect x="3" y="4" width="58" height="58" rx="14" fill="#2d2c41" opacity=".3"/><rect x="3" y="2" width="58" height="58" rx="14" fill="url(#tile)" stroke="#756172" stroke-width="1"/><svg xmlns="http://www.w3.org/2000/svg" width="44" height="44" version="1" viewBox="0 0 64 64" x="10" y="9">
 <circle style="opacity:.2" cx="32" cy="33" r="28" />
 <circle style="fill:#8d348e" cx="32" cy="32" r="28" />
 <circle style="opacity:.3" cx="34.5" cy="29.5" r="20.5" />
 <circle style="opacity:.2" cx="32" cy="33" r="14" />
 <circle style="fill:#ffffff" cx="32" cy="32" r="14" />
 <path style="fill:#691f69" transform="matrix(1.5155445,0,0,1.5,-3.653879,-4.9873848)" d="m27.154517 24.658257-3.464101 2-3.464102 1.999999v-4-3.999999l3.464102 2z" />
 <path style="fill:#ffffff;opacity:.1" d="M 32 4 A 28 28 0 0 0 4 32 A 28 28 0 0 0 4.0214844 32.585938 A 28 28 0 0 1 32 5 A 28 28 0 0 1 59.978516 32.414062 A 28 28 0 0 0 60 32 A 28 28 0 0 0 32 4 z" />
</svg><path d="M25 56h14" stroke="#bb8987" stroke-linecap="round" stroke-width="2"/></svg>